<mxfile host="app.diagrams.net" agent="Mozilla/5.0 (X11; Linux x86_64; rv:131.0) Gecko/20100101 Firefox/131.0" version="25.0.3">
  <diagram name="Page-1" id="GbYRbNNyDbhooDil0Co5">
    <mxGraphModel dx="3287" dy="1967" grid="1" gridSize="10" guides="1" tooltips="1" connect="1" arrows="1" fold="1" page="1" pageScale="1" pageWidth="2000" pageHeight="3000" math="0" shadow="0">
      <root>
        <mxCell id="0" />
        <mxCell id="1" parent="0" />
        <object placeholders="1" c4Name="Magpie Monitor Cloud" c4Type="SystemScopeBoundary" c4Application="Internal Network for Magpie Monitor services" label="&lt;font style=&quot;font-size: 16px&quot;&gt;&lt;b&gt;&lt;div style=&quot;text-align: left&quot;&gt;%c4Name%&lt;/div&gt;&lt;/b&gt;&lt;/font&gt;&lt;div style=&quot;text-align: left&quot;&gt;[%c4Application%]&lt;/div&gt;" id="VblmflZQPWKM-_h5zKfY-1">
          <mxCell style="rounded=1;fontSize=11;whiteSpace=wrap;html=1;dashed=1;arcSize=20;fillColor=none;strokeColor=#666666;fontColor=#333333;labelBackgroundColor=none;align=left;verticalAlign=bottom;labelBorderColor=none;spacingTop=0;spacing=10;dashPattern=8 4;metaEdit=1;rotatable=0;perimeter=rectanglePerimeter;noLabel=0;labelPadding=0;allowArrows=0;connectable=0;expand=0;recursiveResize=0;editable=1;pointerEvents=0;absoluteArcSize=1;points=[[0.25,0,0],[0.5,0,0],[0.75,0,0],[1,0.25,0],[1,0.5,0],[1,0.75,0],[0.75,1,0],[0.5,1,0],[0.25,1,0],[0,0.75,0],[0,0.5,0],[0,0.25,0]];" parent="1" vertex="1">
            <mxGeometry x="840" y="250" width="1140" height="1990" as="geometry" />
          </mxCell>
        </object>
        <object placeholders="1" c4Name="magpiemonitor-cluster-metadata-**" c4Type="SystemScopeBoundary" c4Application="Deployment Node: Ubuntu 22.04 LTS" label="&lt;font style=&quot;font-size: 16px&quot;&gt;&lt;b&gt;&lt;div style=&quot;text-align: left&quot;&gt;%c4Name%&lt;/div&gt;&lt;/b&gt;&lt;/font&gt;&lt;div style=&quot;text-align: left&quot;&gt;[%c4Application%]&lt;/div&gt;" id="VblmflZQPWKM-_h5zKfY-2">
          <mxCell style="rounded=1;fontSize=11;whiteSpace=wrap;html=1;dashed=1;arcSize=20;fillColor=none;strokeColor=#666666;fontColor=#333333;labelBackgroundColor=none;align=left;verticalAlign=bottom;labelBorderColor=none;spacingTop=0;spacing=10;dashPattern=8 4;metaEdit=1;rotatable=0;perimeter=rectanglePerimeter;noLabel=0;labelPadding=0;allowArrows=0;connectable=0;expand=0;recursiveResize=0;editable=1;pointerEvents=0;absoluteArcSize=1;points=[[0.25,0,0],[0.5,0,0],[0.75,0,0],[1,0.25,0],[1,0.5,0],[1,0.75,0],[0.75,1,0],[0.5,1,0],[0.25,1,0],[0,0.75,0],[0,0.5,0],[0,0.25,0]];" parent="1" vertex="1">
            <mxGeometry x="1591" y="1420" width="341" height="410" as="geometry" />
          </mxCell>
        </object>
        <object placeholders="1" c4Name="Cluster metadata database" c4Type="Container" c4Technology="MongoDB" c4Description="Stores cluster metadata from clients cluster" label="&lt;font style=&quot;font-size: 16px&quot;&gt;&lt;b&gt;%c4Name%&lt;/b&gt;&lt;/font&gt;&lt;div&gt;[%c4Type%:&amp;nbsp;%c4Technology%]&lt;/div&gt;&lt;br&gt;&lt;div&gt;&lt;font style=&quot;font-size: 11px&quot;&gt;&lt;font&gt;%c4Description%&lt;/font&gt;&lt;/font&gt;&lt;/div&gt;" id="VblmflZQPWKM-_h5zKfY-3">
          <mxCell style="shape=cylinder3;size=15;whiteSpace=wrap;html=1;boundedLbl=1;rounded=0;labelBackgroundColor=none;fillColor=#f8cecc;fontSize=12;align=center;strokeColor=#b85450;metaEdit=1;points=[[0.5,0,0],[1,0.25,0],[1,0.5,0],[1,0.75,0],[0.5,1,0],[0,0.75,0],[0,0.5,0],[0,0.25,0]];resizable=0;" parent="1" vertex="1">
            <mxGeometry x="1651" y="1630" width="240" height="120" as="geometry" />
          </mxCell>
        </object>
        <object placeholders="1" c4Name="Cluster metadata service" c4Type="Container" c4Technology="Go" c4Description="Provides metadata of connected clusters" label="&lt;font style=&quot;font-size: 16px&quot;&gt;&lt;b&gt;%c4Name%&lt;/b&gt;&lt;/font&gt;&lt;div&gt;[%c4Type%: %c4Technology%]&lt;/div&gt;&lt;br&gt;&lt;div&gt;&lt;font style=&quot;font-size: 11px&quot;&gt;&lt;font&gt;%c4Description%&lt;/font&gt;&lt;/font&gt;&lt;/div&gt;" id="VblmflZQPWKM-_h5zKfY-4">
          <mxCell style="rounded=1;whiteSpace=wrap;html=1;fontSize=11;labelBackgroundColor=none;fillColor=#f8cecc;align=center;arcSize=10;strokeColor=#b85450;metaEdit=1;resizable=0;points=[[0.25,0,0],[0.5,0,0],[0.75,0,0],[1,0.25,0],[1,0.5,0],[1,0.75,0],[0.75,1,0],[0.5,1,0],[0.25,1,0],[0,0.75,0],[0,0.5,0],[0,0.25,0]];" parent="1" vertex="1">
            <mxGeometry x="1651" y="1470" width="240" height="120" as="geometry" />
          </mxCell>
        </object>
        <object placeholders="1" c4Name="Docker" c4Type="ContainerScopeBoundary" c4Application="Docker deamon" label="&lt;font style=&quot;font-size: 16px&quot;&gt;&lt;b&gt;&lt;div style=&quot;text-align: left&quot;&gt;%c4Name%&lt;/div&gt;&lt;/b&gt;&lt;/font&gt;&lt;div style=&quot;text-align: left&quot;&gt;[%c4Application%]&lt;/div&gt;" id="VblmflZQPWKM-_h5zKfY-5">
          <mxCell style="rounded=1;fontSize=11;whiteSpace=wrap;html=1;dashed=1;arcSize=20;fillColor=none;strokeColor=#666666;fontColor=#333333;labelBackgroundColor=none;align=left;verticalAlign=bottom;labelBorderColor=none;spacingTop=0;spacing=10;dashPattern=8 4;metaEdit=1;rotatable=0;perimeter=rectanglePerimeter;noLabel=0;labelPadding=0;allowArrows=0;connectable=0;expand=0;recursiveResize=0;editable=1;pointerEvents=0;absoluteArcSize=1;points=[[0.25,0,0],[0.5,0,0],[0.75,0,0],[1,0.25,0],[1,0.5,0],[1,0.75,0],[0.75,1,0],[0.5,1,0],[0.25,1,0],[0,0.75,0],[0,0.5,0],[0,0.25,0]];" parent="1" vertex="1">
            <mxGeometry x="1611" y="1450" width="300" height="330" as="geometry" />
          </mxCell>
        </object>
        <object placeholders="1" c4Name="magpiemonitor-reports-**" c4Type="SystemScopeBoundary" c4Application="Deployment Node: Ubuntu 22.04 LTS" label="&lt;font style=&quot;font-size: 16px&quot;&gt;&lt;b&gt;&lt;div style=&quot;text-align: left&quot;&gt;%c4Name%&lt;/div&gt;&lt;/b&gt;&lt;/font&gt;&lt;div style=&quot;text-align: left&quot;&gt;[%c4Application%]&lt;/div&gt;" id="VblmflZQPWKM-_h5zKfY-6">
          <mxCell style="rounded=1;fontSize=11;whiteSpace=wrap;html=1;dashed=1;arcSize=20;fillColor=none;strokeColor=#666666;fontColor=#333333;labelBackgroundColor=none;align=left;verticalAlign=bottom;labelBorderColor=none;spacingTop=0;spacing=10;dashPattern=8 4;metaEdit=1;rotatable=0;perimeter=rectanglePerimeter;noLabel=0;labelPadding=0;allowArrows=0;connectable=0;expand=0;recursiveResize=0;editable=1;pointerEvents=0;absoluteArcSize=1;points=[[0.25,0,0],[0.5,0,0],[0.75,0,0],[1,0.25,0],[1,0.5,0],[1,0.75,0],[0.75,1,0],[0.5,1,0],[0.25,1,0],[0,0.75,0],[0,0.5,0],[0,0.25,0]];" parent="1" vertex="1">
            <mxGeometry x="880" y="610" width="341" height="420" as="geometry" />
          </mxCell>
        </object>
        <object placeholders="1" c4Name="Reports database" c4Type="Container" c4Technology="MongoDB" c4Description="Stores pending and generated reports" label="&lt;font style=&quot;font-size: 16px&quot;&gt;&lt;b&gt;%c4Name%&lt;/b&gt;&lt;/font&gt;&lt;div&gt;[%c4Type%:&amp;nbsp;%c4Technology%]&lt;/div&gt;&lt;br&gt;&lt;div&gt;&lt;font style=&quot;font-size: 11px&quot;&gt;&lt;font&gt;%c4Description%&lt;/font&gt;&lt;/font&gt;&lt;/div&gt;" id="VblmflZQPWKM-_h5zKfY-7">
          <mxCell style="shape=cylinder3;size=15;whiteSpace=wrap;html=1;boundedLbl=1;rounded=0;labelBackgroundColor=none;fillColor=#d5e8d4;fontSize=12;align=center;strokeColor=#82b366;metaEdit=1;points=[[0.5,0,0],[1,0.25,0],[1,0.5,0],[1,0.75,0],[0.5,1,0],[0,0.75,0],[0,0.5,0],[0,0.25,0]];resizable=0;fontColor=default;" parent="1" vertex="1">
            <mxGeometry x="940" y="790" width="240" height="120" as="geometry" />
          </mxCell>
        </object>
        <object placeholders="1" c4Name="Reports service" c4Type="Container" c4Technology="Go" c4Description="Provides metadata of connected clusters" label="&lt;font style=&quot;font-size: 16px&quot;&gt;&lt;b&gt;%c4Name%&lt;/b&gt;&lt;/font&gt;&lt;div&gt;[%c4Type%: %c4Technology%]&lt;/div&gt;&lt;br&gt;&lt;div&gt;&lt;font style=&quot;font-size: 11px&quot;&gt;&lt;font&gt;%c4Description%&lt;/font&gt;&lt;/font&gt;&lt;/div&gt;" id="VblmflZQPWKM-_h5zKfY-8">
          <mxCell style="rounded=1;whiteSpace=wrap;html=1;fontSize=11;labelBackgroundColor=none;fillColor=#d5e8d4;align=center;arcSize=10;strokeColor=#82b366;metaEdit=1;resizable=0;points=[[0.25,0,0],[0.5,0,0],[0.75,0,0],[1,0.25,0],[1,0.5,0],[1,0.75,0],[0.75,1,0],[0.5,1,0],[0.25,1,0],[0,0.75,0],[0,0.5,0],[0,0.25,0]];fontColor=default;" parent="1" vertex="1">
            <mxGeometry x="940" y="640" width="240" height="120" as="geometry" />
          </mxCell>
        </object>
        <object placeholders="1" c4Name="Docker" c4Type="ContainerScopeBoundary" c4Application="Docker deamon" label="&lt;font style=&quot;font-size: 16px&quot;&gt;&lt;b&gt;&lt;div style=&quot;text-align: left&quot;&gt;%c4Name%&lt;/div&gt;&lt;/b&gt;&lt;/font&gt;&lt;div style=&quot;text-align: left&quot;&gt;[%c4Application%]&lt;/div&gt;" id="VblmflZQPWKM-_h5zKfY-9">
          <mxCell style="rounded=1;fontSize=11;whiteSpace=wrap;html=1;dashed=1;arcSize=20;fillColor=none;strokeColor=#666666;fontColor=#333333;labelBackgroundColor=none;align=left;verticalAlign=bottom;labelBorderColor=none;spacingTop=0;spacing=10;dashPattern=8 4;metaEdit=1;rotatable=0;perimeter=rectanglePerimeter;noLabel=0;labelPadding=0;allowArrows=0;connectable=0;expand=0;recursiveResize=0;editable=1;pointerEvents=0;absoluteArcSize=1;points=[[0.25,0,0],[0.5,0,0],[0.75,0,0],[1,0.25,0],[1,0.5,0],[1,0.75,0],[0.75,1,0],[0.5,1,0],[0.25,1,0],[0,0.75,0],[0,0.5,0],[0,0.25,0]];" parent="1" vertex="1">
            <mxGeometry x="900" y="620" width="300" height="330" as="geometry" />
          </mxCell>
        </object>
        <object placeholders="1" c4Name="magpiemonitor-management-service-**" c4Type="SystemScopeBoundary" c4Application="Deployment Node: Ubuntu 22.04 LTS" label="&lt;font style=&quot;font-size: 16px&quot;&gt;&lt;b&gt;&lt;div style=&quot;text-align: left&quot;&gt;%c4Name%&lt;/div&gt;&lt;/b&gt;&lt;/font&gt;&lt;div style=&quot;text-align: left&quot;&gt;[%c4Application%]&lt;/div&gt;" id="VblmflZQPWKM-_h5zKfY-10">
          <mxCell style="rounded=1;fontSize=11;whiteSpace=wrap;html=1;dashed=1;arcSize=20;fillColor=none;strokeColor=#666666;fontColor=#333333;labelBackgroundColor=none;align=left;verticalAlign=bottom;labelBorderColor=none;spacingTop=0;spacing=10;dashPattern=8 4;metaEdit=1;rotatable=0;perimeter=rectanglePerimeter;noLabel=0;labelPadding=0;allowArrows=0;connectable=0;expand=0;recursiveResize=0;editable=1;pointerEvents=0;absoluteArcSize=1;points=[[0.25,0,0],[0.5,0,0],[0.75,0,0],[1,0.25,0],[1,0.5,0],[1,0.75,0],[0.75,1,0],[0.5,1,0],[0.25,1,0],[0,0.75,0],[0,0.5,0],[0,0.25,0]];" parent="1" vertex="1">
            <mxGeometry x="1622.5" y="620" width="337.5" height="690" as="geometry" />
          </mxCell>
        </object>
        <object placeholders="1" c4Name="Reports database" c4Type="Container" c4Technology="MongoDB" c4Description="Stores generated reports" label="&lt;font style=&quot;font-size: 16px&quot;&gt;&lt;b&gt;%c4Name%&lt;/b&gt;&lt;/font&gt;&lt;div&gt;[%c4Type%:&amp;nbsp;%c4Technology%]&lt;/div&gt;&lt;br&gt;&lt;div&gt;&lt;font style=&quot;font-size: 11px&quot;&gt;&lt;font&gt;%c4Description%&lt;/font&gt;&lt;/font&gt;&lt;/div&gt;" id="VblmflZQPWKM-_h5zKfY-11">
          <mxCell style="shape=cylinder3;size=15;whiteSpace=wrap;html=1;boundedLbl=1;rounded=0;labelBackgroundColor=none;fillColor=#ffe6cc;fontSize=12;align=center;strokeColor=#d79b00;metaEdit=1;points=[[0.5,0,0],[1,0.25,0],[1,0.5,0],[1,0.75,0],[0.5,1,0],[0,0.75,0],[0,0.5,0],[0,0.25,0]];resizable=0;" parent="1" vertex="1">
            <mxGeometry x="1668.25" y="820" width="240" height="120" as="geometry" />
          </mxCell>
        </object>
        <object placeholders="1" c4Name="Management Service" c4Type="Container" c4Technology="Java SpringBoot" c4Description="Handles user/cluster settings and notifications. Exposes API for web client to interact with the system" label="&lt;font style=&quot;font-size: 16px&quot;&gt;&lt;b&gt;%c4Name%&lt;/b&gt;&lt;/font&gt;&lt;div&gt;[%c4Type%: %c4Technology%]&lt;/div&gt;&lt;br&gt;&lt;div&gt;&lt;font style=&quot;font-size: 11px&quot;&gt;&lt;font&gt;%c4Description%&lt;/font&gt;&lt;/font&gt;&lt;/div&gt;" id="VblmflZQPWKM-_h5zKfY-12">
          <mxCell style="rounded=1;whiteSpace=wrap;html=1;fontSize=11;labelBackgroundColor=none;fillColor=#ffe6cc;align=center;arcSize=10;strokeColor=#d79b00;metaEdit=1;resizable=0;points=[[0.25,0,0],[0.5,0,0],[0.75,0,0],[1,0.25,0],[1,0.5,0],[1,0.75,0],[0.75,1,0],[0.5,1,0],[0.25,1,0],[0,0.75,0],[0,0.5,0],[0,0.25,0]];" parent="1" vertex="1">
            <mxGeometry x="1668.75" y="660" width="240" height="120" as="geometry" />
          </mxCell>
        </object>
        <object placeholders="1" c4Name="Docker" c4Type="ContainerScopeBoundary" c4Application="Docker deamon" label="&lt;font style=&quot;font-size: 16px&quot;&gt;&lt;b&gt;&lt;div style=&quot;text-align: left&quot;&gt;%c4Name%&lt;/div&gt;&lt;/b&gt;&lt;/font&gt;&lt;div style=&quot;text-align: left&quot;&gt;[%c4Application%]&lt;/div&gt;" id="VblmflZQPWKM-_h5zKfY-13">
          <mxCell style="rounded=1;fontSize=11;whiteSpace=wrap;html=1;dashed=1;arcSize=20;fillColor=none;strokeColor=#666666;fontColor=#333333;labelBackgroundColor=none;align=left;verticalAlign=bottom;labelBorderColor=none;spacingTop=0;spacing=10;dashPattern=8 4;metaEdit=1;rotatable=0;perimeter=rectanglePerimeter;noLabel=0;labelPadding=0;allowArrows=0;connectable=0;expand=0;recursiveResize=0;editable=1;pointerEvents=0;absoluteArcSize=1;points=[[0.25,0,0],[0.5,0,0],[0.75,0,0],[1,0.25,0],[1,0.5,0],[1,0.75,0],[0.75,1,0],[0.5,1,0],[0.25,1,0],[0,0.75,0],[0,0.5,0],[0,0.25,0]];" parent="1" vertex="1">
            <mxGeometry x="1638.25" y="640" width="300" height="610" as="geometry" />
          </mxCell>
        </object>
        <object placeholders="1" c4Name="magpiemonitor-logs-ingestion-**" c4Type="SystemScopeBoundary" c4Application="Deployment Node: Ubuntu 22.04 LTS" label="&lt;font style=&quot;font-size: 16px&quot;&gt;&lt;b&gt;&lt;div style=&quot;text-align: left&quot;&gt;%c4Name%&lt;/div&gt;&lt;/b&gt;&lt;/font&gt;&lt;div style=&quot;text-align: left&quot;&gt;[%c4Application%]&lt;/div&gt;" id="VblmflZQPWKM-_h5zKfY-14">
          <mxCell style="rounded=1;fontSize=11;whiteSpace=wrap;html=1;dashed=1;arcSize=20;fillColor=none;strokeColor=#666666;fontColor=#333333;labelBackgroundColor=none;align=left;verticalAlign=bottom;labelBorderColor=none;spacingTop=0;spacing=10;dashPattern=8 4;metaEdit=1;rotatable=0;perimeter=rectanglePerimeter;noLabel=0;labelPadding=0;allowArrows=0;connectable=0;expand=0;recursiveResize=0;editable=1;pointerEvents=0;absoluteArcSize=1;points=[[0.25,0,0],[0.5,0,0],[0.75,0,0],[1,0.25,0],[1,0.5,0],[1,0.75,0],[0.75,1,0],[0.5,1,0],[0.25,1,0],[0,0.75,0],[0,0.5,0],[0,0.25,0]];" parent="1" vertex="1">
            <mxGeometry x="1010" y="1530" width="341" height="300" as="geometry" />
          </mxCell>
        </object>
        <object placeholders="1" c4Name="Logs Storage" c4Type="Container" c4Technology="Elasticsearch" c4Description="Stores application and node log" label="&lt;font style=&quot;font-size: 16px&quot;&gt;&lt;b&gt;%c4Name%&lt;/b&gt;&lt;/font&gt;&lt;div&gt;[%c4Type%:&amp;nbsp;%c4Technology%]&lt;/div&gt;&lt;br&gt;&lt;div&gt;&lt;font style=&quot;font-size: 11px&quot;&gt;&lt;font&gt;%c4Description%&lt;/font&gt;&lt;/font&gt;&lt;/div&gt;" id="VblmflZQPWKM-_h5zKfY-15">
          <mxCell style="shape=cylinder3;size=15;whiteSpace=wrap;html=1;boundedLbl=1;rounded=0;labelBackgroundColor=none;fillColor=#dae8fc;fontSize=12;align=center;strokeColor=#6c8ebf;metaEdit=1;points=[[0.5,0,0],[1,0.25,0],[1,0.5,0],[1,0.75,0],[0.5,1,0],[0,0.75,0],[0,0.5,0],[0,0.25,0]];resizable=0;" parent="1" vertex="1">
            <mxGeometry x="909.75" y="1260" width="240" height="120" as="geometry" />
          </mxCell>
        </object>
        <object placeholders="1" c4Name="Logs ingestion service" c4Type="Container" c4Technology="Go" c4Description="Subscribes for clusters logs and saves them" label="&lt;font style=&quot;font-size: 16px&quot;&gt;&lt;b&gt;%c4Name%&lt;/b&gt;&lt;/font&gt;&lt;div&gt;[%c4Type%: %c4Technology%]&lt;/div&gt;&lt;br&gt;&lt;div&gt;&lt;font style=&quot;font-size: 11px&quot;&gt;&lt;font&gt;%c4Description%&lt;/font&gt;&lt;/font&gt;&lt;/div&gt;" id="VblmflZQPWKM-_h5zKfY-16">
          <mxCell style="rounded=1;whiteSpace=wrap;html=1;fontSize=11;labelBackgroundColor=none;fillColor=#dae8fc;align=center;arcSize=10;strokeColor=#6c8ebf;metaEdit=1;resizable=0;points=[[0.25,0,0],[0.5,0,0],[0.75,0,0],[1,0.25,0],[1,0.5,0],[1,0.75,0],[0.75,1,0],[0.5,1,0],[0.25,1,0],[0,0.75,0],[0,0.5,0],[0,0.25,0]];fontColor=default;" parent="1" vertex="1">
            <mxGeometry x="1060.5" y="1590" width="240" height="120" as="geometry" />
          </mxCell>
        </object>
        <object placeholders="1" c4Name="Docker" c4Type="ContainerScopeBoundary" c4Application="Docker deamon" label="&lt;font style=&quot;font-size: 16px&quot;&gt;&lt;b&gt;&lt;div style=&quot;text-align: left&quot;&gt;%c4Name%&lt;/div&gt;&lt;/b&gt;&lt;/font&gt;&lt;div style=&quot;text-align: left&quot;&gt;[%c4Application%]&lt;/div&gt;" id="VblmflZQPWKM-_h5zKfY-17">
          <mxCell style="rounded=1;fontSize=11;whiteSpace=wrap;html=1;dashed=1;arcSize=20;fillColor=none;strokeColor=#666666;fontColor=#333333;labelBackgroundColor=none;align=left;verticalAlign=bottom;labelBorderColor=none;spacingTop=0;spacing=10;dashPattern=8 4;metaEdit=1;rotatable=0;perimeter=rectanglePerimeter;noLabel=0;labelPadding=0;allowArrows=0;connectable=0;expand=0;recursiveResize=0;editable=1;pointerEvents=0;absoluteArcSize=1;points=[[0.25,0,0],[0.5,0,0],[0.75,0,0],[1,0.25,0],[1,0.5,0],[1,0.75,0],[0.75,1,0],[0.5,1,0],[0.25,1,0],[0,0.75,0],[0,0.5,0],[0,0.25,0]];" parent="1" vertex="1">
            <mxGeometry x="1030" y="1550" width="300" height="230" as="geometry" />
          </mxCell>
        </object>
        <object placeholders="1" c4Name="magpiemonitor-external-queque-**" c4Type="SystemScopeBoundary" c4Application="Deployment Node: Ubuntu 22.04 LTS" label="&lt;font style=&quot;font-size: 16px&quot;&gt;&lt;b&gt;&lt;div style=&quot;text-align: left&quot;&gt;%c4Name%&lt;/div&gt;&lt;/b&gt;&lt;/font&gt;&lt;div style=&quot;text-align: left&quot;&gt;[%c4Application%]&lt;/div&gt;" id="VblmflZQPWKM-_h5zKfY-19">
          <mxCell style="rounded=1;fontSize=11;whiteSpace=wrap;html=1;dashed=1;arcSize=20;fillColor=none;strokeColor=#666666;fontColor=#333333;labelBackgroundColor=none;align=left;verticalAlign=bottom;labelBorderColor=none;spacingTop=0;spacing=10;dashPattern=8 4;metaEdit=1;rotatable=0;perimeter=rectanglePerimeter;noLabel=0;labelPadding=0;allowArrows=0;connectable=0;expand=0;recursiveResize=0;editable=1;pointerEvents=0;absoluteArcSize=1;points=[[0.25,0,0],[0.5,0,0],[0.75,0,0],[1,0.25,0],[1,0.5,0],[1,0.75,0],[0.75,1,0],[0.5,1,0],[0.25,1,0],[0,0.75,0],[0,0.5,0],[0,0.25,0]];" parent="1" vertex="1">
            <mxGeometry x="1250" y="1910" width="341" height="300" as="geometry" />
          </mxCell>
        </object>
        <object placeholders="1" c4Name="Docker" c4Type="ContainerScopeBoundary" c4Application="Docker deamon" label="&lt;font style=&quot;font-size: 16px&quot;&gt;&lt;b&gt;&lt;div style=&quot;text-align: left&quot;&gt;%c4Name%&lt;/div&gt;&lt;/b&gt;&lt;/font&gt;&lt;div style=&quot;text-align: left&quot;&gt;[%c4Application%]&lt;/div&gt;" id="VblmflZQPWKM-_h5zKfY-22">
          <mxCell style="rounded=1;fontSize=11;whiteSpace=wrap;html=1;dashed=1;arcSize=20;fillColor=none;strokeColor=#666666;fontColor=#333333;labelBackgroundColor=none;align=left;verticalAlign=bottom;labelBorderColor=none;spacingTop=0;spacing=10;dashPattern=8 4;metaEdit=1;rotatable=0;perimeter=rectanglePerimeter;noLabel=0;labelPadding=0;allowArrows=0;connectable=0;expand=0;recursiveResize=0;editable=1;pointerEvents=0;absoluteArcSize=1;points=[[0.25,0,0],[0.5,0,0],[0.75,0,0],[1,0.25,0],[1,0.5,0],[1,0.75,0],[0.75,1,0],[0.5,1,0],[0.25,1,0],[0,0.75,0],[0,0.5,0],[0,0.25,0]];" parent="1" vertex="1">
            <mxGeometry x="1270" y="1930" width="300" height="230" as="geometry" />
          </mxCell>
        </object>
        <object placeholders="1" c4Name="External Queue" c4Type="Container" c4Technology="Apacha Kafka" c4Description="Queue for cluster metadata and cluster logs" label="&lt;font style=&quot;font-size: 16px&quot;&gt;&lt;b&gt;%c4Name%&lt;/b&gt;&lt;/font&gt;&lt;div&gt;[%c4Type%:&amp;nbsp;%c4Technology%]&lt;/div&gt;&lt;br&gt;&lt;div&gt;&lt;font style=&quot;font-size: 11px&quot;&gt;&lt;font&gt;%c4Description%&lt;/font&gt;&lt;/font&gt;&lt;/div&gt;" id="VblmflZQPWKM-_h5zKfY-23">
          <mxCell style="shape=cylinder3;size=15;direction=south;whiteSpace=wrap;html=1;boundedLbl=1;rounded=0;labelBackgroundColor=none;fillColor=#bac8d3;fontSize=12;align=center;strokeColor=#23445d;metaEdit=1;points=[[0.5,0,0],[1,0.25,0],[1,0.5,0],[1,0.75,0],[0.5,1,0],[0,0.75,0],[0,0.5,0],[0,0.25,0]];resizable=0;fontColor=default;" parent="1" vertex="1">
            <mxGeometry x="1313.5" y="1960" width="240" height="120" as="geometry" />
          </mxCell>
        </object>
        <object placeholders="1" c4Name="Clients cluster" c4Type="SystemScopeBoundary" c4Application="Client&#39;s cluster which is to be monitored" label="&lt;font style=&quot;font-size: 16px&quot;&gt;&lt;b&gt;&lt;div style=&quot;text-align: left&quot;&gt;%c4Name%&lt;/div&gt;&lt;/b&gt;&lt;/font&gt;&lt;div style=&quot;text-align: left&quot;&gt;[%c4Application%]&lt;/div&gt;" id="VblmflZQPWKM-_h5zKfY-24">
          <mxCell style="rounded=1;fontSize=11;whiteSpace=wrap;html=1;dashed=1;arcSize=20;fillColor=none;strokeColor=#666666;fontColor=#333333;labelBackgroundColor=none;align=left;verticalAlign=bottom;labelBorderColor=none;spacingTop=0;spacing=10;dashPattern=8 4;metaEdit=1;rotatable=0;perimeter=rectanglePerimeter;noLabel=0;labelPadding=0;allowArrows=0;connectable=0;expand=0;recursiveResize=0;editable=1;pointerEvents=0;absoluteArcSize=1;points=[[0.25,0,0],[0.5,0,0],[0.75,0,0],[1,0.25,0],[1,0.5,0],[1,0.75,0],[0.75,1,0],[0.5,1,0],[0.25,1,0],[0,0.75,0],[0,0.5,0],[0,0.25,0]];" parent="1" vertex="1">
            <mxGeometry x="1268.5" y="2380" width="601.5" height="420" as="geometry" />
          </mxCell>
        </object>
        <object placeholders="1" c4Name="Pod Collector Agent" c4Type="Container" c4Technology="Go" c4Description="Collects logs from applications installed in the cluster" label="&lt;font style=&quot;font-size: 16px&quot;&gt;&lt;b&gt;%c4Name%&lt;/b&gt;&lt;/font&gt;&lt;div&gt;[%c4Type%: %c4Technology%]&lt;/div&gt;&lt;br&gt;&lt;div&gt;&lt;font style=&quot;font-size: 11px&quot;&gt;&lt;font&gt;%c4Description%&lt;/font&gt;&lt;/font&gt;&lt;/div&gt;" id="VblmflZQPWKM-_h5zKfY-25">
          <mxCell style="rounded=1;whiteSpace=wrap;html=1;fontSize=11;labelBackgroundColor=none;fillColor=#fff2cc;align=center;arcSize=10;strokeColor=#d6b656;metaEdit=1;resizable=0;points=[[0.25,0,0],[0.5,0,0],[0.75,0,0],[1,0.25,0],[1,0.5,0],[1,0.75,0],[0.75,1,0],[0.5,1,0],[0.25,1,0],[0,0.75,0],[0,0.5,0],[0,0.25,0]];" parent="1" vertex="1">
            <mxGeometry x="1318.5" y="2570" width="240" height="120" as="geometry" />
          </mxCell>
        </object>
        <object placeholders="1" c4Name="Kubernetes" c4Type="ContainerScopeBoundary" c4Application="Installed as an application in the cluster" label="&lt;font style=&quot;font-size: 16px&quot;&gt;&lt;b&gt;&lt;div style=&quot;text-align: left&quot;&gt;%c4Name%&lt;/div&gt;&lt;/b&gt;&lt;/font&gt;&lt;div style=&quot;text-align: left&quot;&gt;[%c4Application%]&lt;/div&gt;" id="VblmflZQPWKM-_h5zKfY-26">
          <mxCell style="rounded=1;fontSize=11;whiteSpace=wrap;html=1;dashed=1;arcSize=20;fillColor=none;strokeColor=#666666;fontColor=#333333;labelBackgroundColor=none;align=left;verticalAlign=bottom;labelBorderColor=none;spacingTop=0;spacing=10;dashPattern=8 4;metaEdit=1;rotatable=0;perimeter=rectanglePerimeter;noLabel=0;labelPadding=0;allowArrows=0;connectable=0;expand=0;recursiveResize=0;editable=1;pointerEvents=0;absoluteArcSize=1;points=[[0.25,0,0],[0.5,0,0],[0.75,0,0],[1,0.25,0],[1,0.5,0],[1,0.75,0],[0.75,1,0],[0.5,1,0],[0.25,1,0],[0,0.75,0],[0,0.5,0],[0,0.25,0]];" parent="1" vertex="1">
            <mxGeometry x="1303.5" y="2410" width="546.5" height="340" as="geometry" />
          </mxCell>
        </object>
        <object placeholders="1" c4Name="Node Collector Agent" c4Type="Container" c4Technology="Go" c4Description="Collects logs from nodes in the cluster" label="&lt;font style=&quot;font-size: 16px&quot;&gt;&lt;b&gt;%c4Name%&lt;/b&gt;&lt;/font&gt;&lt;div&gt;[%c4Type%: %c4Technology%]&lt;/div&gt;&lt;br&gt;&lt;div&gt;&lt;font style=&quot;font-size: 11px&quot;&gt;&lt;font&gt;%c4Description%&lt;/font&gt;&lt;/font&gt;&lt;/div&gt;" id="VblmflZQPWKM-_h5zKfY-27">
          <mxCell style="rounded=1;whiteSpace=wrap;html=1;fontSize=11;labelBackgroundColor=none;fillColor=#fff2cc;align=center;arcSize=10;strokeColor=#d6b656;metaEdit=1;resizable=0;points=[[0.25,0,0],[0.5,0,0],[0.75,0,0],[1,0.25,0],[1,0.5,0],[1,0.75,0],[0.75,1,0],[0.5,1,0],[0.25,1,0],[0,0.75,0],[0,0.5,0],[0,0.25,0]];" parent="1" vertex="1">
            <mxGeometry x="1318.5" y="2420" width="240" height="120" as="geometry" />
          </mxCell>
        </object>
        <object placeholders="1" c4Name="magpiemonitor-internal-queue-**" c4Type="SystemScopeBoundary" c4Application="Deployment Node: Ubuntu 22.04 LTS" label="&lt;font style=&quot;font-size: 16px&quot;&gt;&lt;b&gt;&lt;div style=&quot;text-align: left&quot;&gt;%c4Name%&lt;/div&gt;&lt;/b&gt;&lt;/font&gt;&lt;div style=&quot;text-align: left&quot;&gt;[%c4Application%]&lt;/div&gt;" id="VblmflZQPWKM-_h5zKfY-28">
          <mxCell style="rounded=1;fontSize=11;whiteSpace=wrap;html=1;dashed=1;arcSize=20;fillColor=none;strokeColor=#666666;fontColor=#333333;labelBackgroundColor=none;align=left;verticalAlign=bottom;labelBorderColor=none;spacingTop=0;spacing=10;dashPattern=8 4;metaEdit=1;rotatable=0;perimeter=rectanglePerimeter;noLabel=0;labelPadding=0;allowArrows=0;connectable=0;expand=0;recursiveResize=0;editable=1;pointerEvents=0;absoluteArcSize=1;points=[[0.25,0,0],[0.5,0,0],[0.75,0,0],[1,0.25,0],[1,0.5,0],[1,0.75,0],[0.75,1,0],[0.5,1,0],[0.25,1,0],[0,0.75,0],[0,0.5,0],[0,0.25,0]];" parent="1" vertex="1">
            <mxGeometry x="1263.5" y="1080" width="341" height="300" as="geometry" />
          </mxCell>
        </object>
        <object placeholders="1" c4Name="Docker" c4Type="ContainerScopeBoundary" c4Application="Docker deamon" label="&lt;font style=&quot;font-size: 16px&quot;&gt;&lt;b&gt;&lt;div style=&quot;text-align: left&quot;&gt;%c4Name%&lt;/div&gt;&lt;/b&gt;&lt;/font&gt;&lt;div style=&quot;text-align: left&quot;&gt;[%c4Application%]&lt;/div&gt;" id="VblmflZQPWKM-_h5zKfY-29">
          <mxCell style="rounded=1;fontSize=11;whiteSpace=wrap;html=1;dashed=1;arcSize=20;fillColor=none;strokeColor=#666666;fontColor=#333333;labelBackgroundColor=none;align=left;verticalAlign=bottom;labelBorderColor=none;spacingTop=0;spacing=10;dashPattern=8 4;metaEdit=1;rotatable=0;perimeter=rectanglePerimeter;noLabel=0;labelPadding=0;allowArrows=0;connectable=0;expand=0;recursiveResize=0;editable=1;pointerEvents=0;absoluteArcSize=1;points=[[0.25,0,0],[0.5,0,0],[0.75,0,0],[1,0.25,0],[1,0.5,0],[1,0.75,0],[0.75,1,0],[0.5,1,0],[0.25,1,0],[0,0.75,0],[0,0.5,0],[0,0.25,0]];" parent="1" vertex="1">
            <mxGeometry x="1283.5" y="1100" width="300" height="230" as="geometry" />
          </mxCell>
        </object>
        <object placeholders="1" c4Name="Internal Messages Queue" c4Type="Container" c4Technology="Apacha Kafka" c4Description="Queue for reports and metadata messages" label="&lt;font style=&quot;font-size: 16px&quot;&gt;&lt;b&gt;%c4Name%&lt;/b&gt;&lt;/font&gt;&lt;div&gt;[%c4Type%:&amp;nbsp;%c4Technology%]&lt;/div&gt;&lt;br&gt;&lt;div&gt;&lt;font style=&quot;font-size: 11px&quot;&gt;&lt;font&gt;%c4Description%&lt;/font&gt;&lt;/font&gt;&lt;/div&gt;" id="VblmflZQPWKM-_h5zKfY-30">
          <mxCell style="shape=cylinder3;size=15;direction=south;whiteSpace=wrap;html=1;boundedLbl=1;rounded=0;labelBackgroundColor=none;fillColor=#bac8d3;fontSize=12;align=center;strokeColor=#23445d;metaEdit=1;points=[[0.5,0,0],[1,0.25,0],[1,0.5,0],[1,0.75,0],[0.5,1,0],[0,0.75,0],[0,0.5,0],[0,0.25,0]];resizable=0;fontColor=default;" parent="1" vertex="1">
            <mxGeometry x="1314" y="1155" width="240" height="120" as="geometry" />
          </mxCell>
        </object>
        <object placeholders="1" c4Type="Relationship" c4Description="Publishes generated reports and subscribes for report requests" label="&lt;div style=&quot;text-align: left&quot;&gt;&lt;div style=&quot;text-align: center&quot;&gt;&lt;b&gt;%c4Description%&lt;/b&gt;&lt;/div&gt;" id="VblmflZQPWKM-_h5zKfY-31">
          <mxCell style="endArrow=blockThin;html=1;fontSize=10;fontColor=#404040;strokeWidth=1;endFill=1;strokeColor=#828282;elbow=vertical;metaEdit=1;endSize=14;startSize=14;jumpStyle=arc;jumpSize=16;rounded=0;edgeStyle=orthogonalEdgeStyle;exitX=1;exitY=0.5;exitDx=0;exitDy=0;exitPerimeter=0;entryX=0.254;entryY=0.974;entryDx=0;entryDy=0;entryPerimeter=0;" parent="1" source="VblmflZQPWKM-_h5zKfY-8" target="VblmflZQPWKM-_h5zKfY-30" edge="1">
            <mxGeometry x="0.1725" y="100" width="240" relative="1" as="geometry">
              <mxPoint x="1032.5" y="1040" as="sourcePoint" />
              <mxPoint x="1320" y="1220" as="targetPoint" />
              <Array as="points">
                <mxPoint x="1263" y="700" />
                <mxPoint x="1263" y="1185" />
              </Array>
              <mxPoint as="offset" />
            </mxGeometry>
          </mxCell>
        </object>
        <object placeholders="1" c4Type="Relationship" c4Description="Publishes node logs and metadata" label="&lt;div style=&quot;text-align: left&quot;&gt;&lt;div style=&quot;text-align: center&quot;&gt;&lt;b&gt;%c4Description%&lt;/b&gt;&lt;/div&gt;" id="VblmflZQPWKM-_h5zKfY-35">
          <mxCell style="endArrow=blockThin;html=1;fontSize=10;fontColor=#404040;strokeWidth=1;endFill=1;strokeColor=#828282;elbow=vertical;metaEdit=1;endSize=14;startSize=14;jumpStyle=arc;jumpSize=16;rounded=0;edgeStyle=orthogonalEdgeStyle;" parent="1" source="VblmflZQPWKM-_h5zKfY-27" edge="1">
            <mxGeometry x="-0.7332" y="-20" width="240" relative="1" as="geometry">
              <mxPoint x="1520" y="1980" as="sourcePoint" />
              <mxPoint x="1310" y="2030" as="targetPoint" />
              <Array as="points">
                <mxPoint x="1170" y="2480" />
                <mxPoint x="1170" y="2030" />
              </Array>
              <mxPoint as="offset" />
            </mxGeometry>
          </mxCell>
        </object>
        <object placeholders="1" c4Type="Relationship" c4Description="Publishes application logs and metadata" label="&lt;div style=&quot;text-align: left&quot;&gt;&lt;div style=&quot;text-align: center&quot;&gt;&lt;b&gt;%c4Description%&lt;/b&gt;&lt;/div&gt;" id="VblmflZQPWKM-_h5zKfY-36">
          <mxCell style="endArrow=blockThin;html=1;fontSize=10;fontColor=#404040;strokeWidth=1;endFill=1;strokeColor=#828282;elbow=vertical;metaEdit=1;endSize=14;startSize=14;jumpStyle=arc;jumpSize=16;rounded=0;edgeStyle=orthogonalEdgeStyle;" parent="1" target="VblmflZQPWKM-_h5zKfY-23" edge="1">
            <mxGeometry x="-0.5832" y="10" width="240" relative="1" as="geometry">
              <mxPoint x="1328.96" y="2630" as="sourcePoint" />
              <mxPoint x="1319.96" y="2180" as="targetPoint" />
              <Array as="points">
                <mxPoint x="1130" y="2630" />
                <mxPoint x="1130" y="2010" />
              </Array>
              <mxPoint as="offset" />
            </mxGeometry>
          </mxCell>
        </object>
        <object placeholders="1" c4Type="Relationship" c4Description="Subscribes for cluster logs" label="&lt;div style=&quot;text-align: left&quot;&gt;&lt;div style=&quot;text-align: center&quot;&gt;&lt;b&gt;%c4Description%&lt;/b&gt;&lt;/div&gt;" id="VblmflZQPWKM-_h5zKfY-37">
          <mxCell style="endArrow=blockThin;html=1;fontSize=10;fontColor=#404040;strokeWidth=1;endFill=1;strokeColor=#828282;elbow=vertical;metaEdit=1;endSize=14;startSize=14;jumpStyle=arc;jumpSize=16;rounded=0;edgeStyle=orthogonalEdgeStyle;entryX=0.411;entryY=0.008;entryDx=0;entryDy=0;entryPerimeter=0;" parent="1" target="VblmflZQPWKM-_h5zKfY-23" edge="1">
            <mxGeometry width="240" relative="1" as="geometry">
              <mxPoint x="1063" y="1625" as="sourcePoint" />
              <mxPoint x="1840" y="1920" as="targetPoint" />
              <Array as="points">
                <mxPoint x="920" y="1625" />
                <mxPoint x="920" y="1940" />
                <mxPoint x="1620" y="1940" />
                <mxPoint x="1620" y="2009" />
              </Array>
            </mxGeometry>
          </mxCell>
        </object>
        <object placeholders="1" c4Type="Relationship" id="VblmflZQPWKM-_h5zKfY-38">
          <mxCell style="endArrow=blockThin;html=1;fontSize=10;fontColor=#404040;strokeWidth=1;endFill=1;strokeColor=#828282;elbow=vertical;metaEdit=1;endSize=14;startSize=14;jumpStyle=arc;jumpSize=16;rounded=0;edgeStyle=orthogonalEdgeStyle;entryX=0.705;entryY=0.012;entryDx=0;entryDy=0;entryPerimeter=0;exitX=0.991;exitY=0.59;exitDx=0;exitDy=0;exitPerimeter=0;" parent="1" source="VblmflZQPWKM-_h5zKfY-4" target="VblmflZQPWKM-_h5zKfY-23" edge="1">
            <mxGeometry width="240" relative="1" as="geometry">
              <mxPoint x="1950" y="1540" as="sourcePoint" />
              <mxPoint x="1880" y="1860" as="targetPoint" />
              <Array as="points">
                <mxPoint x="1950" y="1541" />
                <mxPoint x="1950" y="2045" />
              </Array>
            </mxGeometry>
          </mxCell>
        </object>
        <mxCell id="VblmflZQPWKM-_h5zKfY-39" value="Subscribes for cluster metadata" style="edgeLabel;html=1;align=center;verticalAlign=middle;resizable=0;points=[];" parent="VblmflZQPWKM-_h5zKfY-38" vertex="1" connectable="0">
          <mxGeometry x="0.516" y="-1" relative="1" as="geometry">
            <mxPoint as="offset" />
          </mxGeometry>
        </mxCell>
        <object placeholders="1" c4Type="Relationship" c4Description="Publishes updated cluster metadata" label="&lt;div style=&quot;text-align: left&quot;&gt;&lt;div style=&quot;text-align: center&quot;&gt;&lt;b&gt;%c4Description%&lt;/b&gt;&lt;/div&gt;" id="VblmflZQPWKM-_h5zKfY-46">
          <mxCell style="endArrow=blockThin;html=1;fontSize=10;fontColor=#404040;strokeWidth=1;endFill=1;strokeColor=#828282;elbow=vertical;metaEdit=1;endSize=14;startSize=14;jumpStyle=arc;jumpSize=16;rounded=0;edgeStyle=orthogonalEdgeStyle;entryX=0.787;entryY=0.985;entryDx=0;entryDy=0;entryPerimeter=0;exitX=0.5;exitY=0;exitDx=0;exitDy=0;exitPerimeter=0;" parent="1" source="VblmflZQPWKM-_h5zKfY-4" target="VblmflZQPWKM-_h5zKfY-30" edge="1">
            <mxGeometry x="-0.2605" y="10" width="240" relative="1" as="geometry">
              <mxPoint x="1270" y="1260" as="sourcePoint" />
              <mxPoint x="1510" y="1260" as="targetPoint" />
              <Array as="points">
                <mxPoint x="1771" y="1410" />
                <mxPoint x="1180" y="1410" />
                <mxPoint x="1180" y="1249" />
              </Array>
              <mxPoint as="offset" />
            </mxGeometry>
          </mxCell>
        </object>
        <object placeholders="1" c4Type="Relationship" c4Description="Subscribes for updated cluster metadata and generated reports. Published report generation requests" label="&lt;div style=&quot;text-align: left&quot;&gt;&lt;div style=&quot;text-align: center&quot;&gt;&lt;b&gt;%c4Description%&lt;/b&gt;&lt;/div&gt;" id="VblmflZQPWKM-_h5zKfY-47">
          <mxCell style="endArrow=blockThin;html=1;fontSize=10;fontColor=#404040;strokeWidth=1;endFill=1;strokeColor=#828282;elbow=vertical;metaEdit=1;endSize=14;startSize=14;jumpStyle=arc;jumpSize=16;rounded=0;edgeStyle=orthogonalEdgeStyle;exitX=0;exitY=0.5;exitDx=0;exitDy=0;exitPerimeter=0;entryX=0.5;entryY=0;entryDx=0;entryDy=0;entryPerimeter=0;" parent="1" source="VblmflZQPWKM-_h5zKfY-12" target="VblmflZQPWKM-_h5zKfY-30" edge="1">
            <mxGeometry x="-0.5122" y="-70" width="240" relative="1" as="geometry">
              <mxPoint x="1270" y="1150" as="sourcePoint" />
              <mxPoint x="1510" y="1150" as="targetPoint" />
              <Array as="points">
                <mxPoint x="1590" y="720" />
                <mxPoint x="1590" y="1215" />
              </Array>
              <mxPoint as="offset" />
            </mxGeometry>
          </mxCell>
        </object>
        <object placeholders="1" c4Name="Cluster metadata database" c4Type="Container" c4Technology="MongoDB" c4Description="Stores current cluster metadata" label="&lt;font style=&quot;font-size: 16px&quot;&gt;&lt;b&gt;%c4Name%&lt;/b&gt;&lt;/font&gt;&lt;div&gt;[%c4Type%:&amp;nbsp;%c4Technology%]&lt;/div&gt;&lt;br&gt;&lt;div&gt;&lt;font style=&quot;font-size: 11px&quot;&gt;&lt;font&gt;%c4Description%&lt;/font&gt;&lt;/font&gt;&lt;/div&gt;" id="VblmflZQPWKM-_h5zKfY-48">
          <mxCell style="shape=cylinder3;size=15;whiteSpace=wrap;html=1;boundedLbl=1;rounded=0;labelBackgroundColor=none;fillColor=#ffe6cc;fontSize=12;align=center;strokeColor=#d79b00;metaEdit=1;points=[[0.5,0,0],[1,0.25,0],[1,0.5,0],[1,0.75,0],[0.5,1,0],[0,0.75,0],[0,0.5,0],[0,0.25,0]];resizable=0;" parent="1" vertex="1">
            <mxGeometry x="1668.75" y="960" width="240" height="120" as="geometry" />
          </mxCell>
        </object>
        <object placeholders="1" c4Name="User settings database" c4Type="Container" c4Technology="PostgreSQL" c4Description="Stores user settings" label="&lt;font style=&quot;font-size: 16px&quot;&gt;&lt;b&gt;%c4Name%&lt;/b&gt;&lt;/font&gt;&lt;div&gt;[%c4Type%:&amp;nbsp;%c4Technology%]&lt;/div&gt;&lt;br&gt;&lt;div&gt;&lt;font style=&quot;font-size: 11px&quot;&gt;&lt;font&gt;%c4Description%&lt;/font&gt;&lt;/font&gt;&lt;/div&gt;" id="VblmflZQPWKM-_h5zKfY-49">
          <mxCell style="shape=cylinder3;size=15;whiteSpace=wrap;html=1;boundedLbl=1;rounded=0;labelBackgroundColor=none;fillColor=#ffe6cc;fontSize=12;align=center;strokeColor=#d79b00;metaEdit=1;points=[[0.5,0,0],[1,0.25,0],[1,0.5,0],[1,0.75,0],[0.5,1,0],[0,0.75,0],[0,0.5,0],[0,0.25,0]];resizable=0;" parent="1" vertex="1">
            <mxGeometry x="1668.75" y="1090" width="240" height="120" as="geometry" />
          </mxCell>
        </object>
        <object placeholders="1" c4Name="magpiemonitor-client-**" c4Type="SystemScopeBoundary" c4Application="Deployment Node: Ubuntu 22.04 LTS" label="&lt;font style=&quot;font-size: 16px&quot;&gt;&lt;b&gt;&lt;div style=&quot;text-align: left&quot;&gt;%c4Name%&lt;/div&gt;&lt;/b&gt;&lt;/font&gt;&lt;div style=&quot;text-align: left&quot;&gt;[%c4Application%]&lt;/div&gt;" id="VblmflZQPWKM-_h5zKfY-50">
          <mxCell style="rounded=1;fontSize=11;whiteSpace=wrap;html=1;dashed=1;arcSize=20;fillColor=none;strokeColor=#666666;fontColor=#333333;labelBackgroundColor=none;align=left;verticalAlign=bottom;labelBorderColor=none;spacingTop=0;spacing=10;dashPattern=8 4;metaEdit=1;rotatable=0;perimeter=rectanglePerimeter;noLabel=0;labelPadding=0;allowArrows=0;connectable=0;expand=0;recursiveResize=0;editable=1;pointerEvents=0;absoluteArcSize=1;points=[[0.25,0,0],[0.5,0,0],[0.75,0,0],[1,0.25,0],[1,0.5,0],[1,0.75,0],[0.75,1,0],[0.5,1,0],[0.25,1,0],[0,0.75,0],[0,0.5,0],[0,0.25,0]];" parent="1" vertex="1">
            <mxGeometry x="1221" y="310" width="341" height="240" as="geometry" />
          </mxCell>
        </object>
        <object placeholders="1" c4Name="Client Web server" c4Type="Container" c4Technology="Nginx, React, Typescript" c4Description="Server of clients static files" label="&lt;font style=&quot;font-size: 16px&quot;&gt;&lt;b&gt;%c4Name%&lt;/b&gt;&lt;/font&gt;&lt;div&gt;[%c4Type%: %c4Technology%]&lt;/div&gt;&lt;br&gt;&lt;div&gt;&lt;font style=&quot;font-size: 11px&quot;&gt;&lt;font&gt;%c4Description%&lt;/font&gt;&lt;/font&gt;&lt;/div&gt;" id="VblmflZQPWKM-_h5zKfY-52">
          <mxCell style="rounded=1;whiteSpace=wrap;html=1;fontSize=11;labelBackgroundColor=none;fillColor=#bac8d3;align=center;arcSize=10;strokeColor=#23445d;metaEdit=1;resizable=0;points=[[0.25,0,0],[0.5,0,0],[0.75,0,0],[1,0.25,0],[1,0.5,0],[1,0.75,0],[0.75,1,0],[0.5,1,0],[0.25,1,0],[0,0.75,0],[0,0.5,0],[0,0.25,0]];fontColor=default;" parent="1" vertex="1">
            <mxGeometry x="1281" y="340" width="240" height="120" as="geometry" />
          </mxCell>
        </object>
        <object placeholders="1" c4Name="Docker" c4Type="ContainerScopeBoundary" c4Application="Docker deamon" label="&lt;font style=&quot;font-size: 16px&quot;&gt;&lt;b&gt;&lt;div style=&quot;text-align: left&quot;&gt;%c4Name%&lt;/div&gt;&lt;/b&gt;&lt;/font&gt;&lt;div style=&quot;text-align: left&quot;&gt;[%c4Application%]&lt;/div&gt;" id="VblmflZQPWKM-_h5zKfY-53">
          <mxCell style="rounded=1;fontSize=11;whiteSpace=wrap;html=1;dashed=1;arcSize=20;fillColor=none;strokeColor=#666666;fontColor=#333333;labelBackgroundColor=none;align=left;verticalAlign=bottom;labelBorderColor=none;spacingTop=0;spacing=10;dashPattern=8 4;metaEdit=1;rotatable=0;perimeter=rectanglePerimeter;noLabel=0;labelPadding=0;allowArrows=0;connectable=0;expand=0;recursiveResize=0;editable=1;pointerEvents=0;absoluteArcSize=1;points=[[0.25,0,0],[0.5,0,0],[0.75,0,0],[1,0.25,0],[1,0.5,0],[1,0.75,0],[0.75,1,0],[0.5,1,0],[0.25,1,0],[0,0.75,0],[0,0.5,0],[0,0.25,0]];" parent="1" vertex="1">
            <mxGeometry x="1241" y="320" width="300" height="180" as="geometry" />
          </mxCell>
        </object>
        <object placeholders="1" c4Name="Web App" c4Type="Container" c4Technology="React, Typescript" c4Description="User interface for report scheduling, configuration and generation" label="&lt;font style=&quot;font-size: 16px&quot;&gt;&lt;b&gt;%c4Name%&lt;/b&gt;&lt;/font&gt;&lt;div&gt;[%c4Type%:&amp;nbsp;%c4Technology%]&lt;/div&gt;&lt;br&gt;&lt;div&gt;&lt;font style=&quot;font-size: 11px&quot;&gt;&lt;font&gt;%c4Description%&lt;/font&gt;&lt;/font&gt;&lt;/div&gt;" id="VblmflZQPWKM-_h5zKfY-54">
          <mxCell style="shape=mxgraph.c4.webBrowserContainer2;whiteSpace=wrap;html=1;boundedLbl=1;rounded=0;labelBackgroundColor=none;strokeColor=#23445d;fillColor=#bac8d3;strokeColor=#118ACD;strokeColor2=#0E7DAD;fontSize=12;align=center;metaEdit=1;points=[[0.5,0,0],[1,0.25,0],[1,0.5,0],[1,0.75,0],[0.5,1,0],[0,0.75,0],[0,0.5,0],[0,0.25,0]];resizable=0;fontColor=default;" parent="1" vertex="1">
            <mxGeometry x="1677.25" y="10" width="240" height="160" as="geometry" />
          </mxCell>
        </object>
        <object placeholders="1" c4Name="Web browser" c4Type="SystemScopeBoundary" c4Application="User device connected to the internet" label="&lt;font style=&quot;font-size: 16px&quot;&gt;&lt;b&gt;&lt;div style=&quot;text-align: left&quot;&gt;%c4Name%&lt;/div&gt;&lt;/b&gt;&lt;/font&gt;&lt;div style=&quot;text-align: left&quot;&gt;[%c4Application%]&lt;/div&gt;" id="VblmflZQPWKM-_h5zKfY-55">
          <mxCell style="rounded=1;fontSize=11;whiteSpace=wrap;html=1;dashed=1;arcSize=20;fillColor=none;strokeColor=#666666;fontColor=#333333;labelBackgroundColor=none;align=left;verticalAlign=bottom;labelBorderColor=none;spacingTop=0;spacing=10;dashPattern=8 4;metaEdit=1;rotatable=0;perimeter=rectanglePerimeter;noLabel=0;labelPadding=0;allowArrows=0;connectable=0;expand=0;recursiveResize=0;editable=1;pointerEvents=0;absoluteArcSize=1;points=[[0.25,0,0],[0.5,0,0],[0.75,0,0],[1,0.25,0],[1,0.5,0],[1,0.75,0],[0.75,1,0],[0.5,1,0],[0.25,1,0],[0,0.75,0],[0,0.5,0],[0,0.25,0]];" parent="1" vertex="1">
            <mxGeometry x="1640.25" width="305.5" height="230" as="geometry" />
          </mxCell>
        </object>
        <object placeholders="1" c4Name="magpiemonitor-proxy-**" c4Type="SystemScopeBoundary" c4Application="Deployment Node: Ubuntu 22.04 LTS" label="&lt;font style=&quot;font-size: 16px&quot;&gt;&lt;b&gt;&lt;div style=&quot;text-align: left&quot;&gt;%c4Name%&lt;/div&gt;&lt;/b&gt;&lt;/font&gt;&lt;div style=&quot;text-align: left&quot;&gt;[%c4Application%]&lt;/div&gt;" id="VblmflZQPWKM-_h5zKfY-59">
          <mxCell style="rounded=1;fontSize=11;whiteSpace=wrap;html=1;dashed=1;arcSize=20;fillColor=none;strokeColor=#666666;fontColor=#333333;labelBackgroundColor=none;align=left;verticalAlign=bottom;labelBorderColor=none;spacingTop=0;spacing=10;dashPattern=8 4;metaEdit=1;rotatable=0;perimeter=rectanglePerimeter;noLabel=0;labelPadding=0;allowArrows=0;connectable=0;expand=0;recursiveResize=0;editable=1;pointerEvents=0;absoluteArcSize=1;points=[[0.25,0,0],[0.5,0,0],[0.75,0,0],[1,0.25,0],[1,0.5,0],[1,0.75,0],[0.75,1,0],[0.5,1,0],[0.25,1,0],[0,0.75,0],[0,0.5,0],[0,0.25,0]];" parent="1" vertex="1">
            <mxGeometry x="1606" y="310" width="341" height="240" as="geometry" />
          </mxCell>
        </object>
        <object placeholders="1" c4Name="Reverse Proxy" c4Type="Container" c4Technology="Nginx, Acme-companion" c4Description="Acts as a gateway to internet facing services, terminates encryption, handles routing based on a domain" label="&lt;font style=&quot;font-size: 16px&quot;&gt;&lt;b&gt;%c4Name%&lt;/b&gt;&lt;/font&gt;&lt;div&gt;[%c4Type%: %c4Technology%]&lt;/div&gt;&lt;br&gt;&lt;div&gt;&lt;font style=&quot;font-size: 11px&quot;&gt;&lt;font&gt;%c4Description%&lt;/font&gt;&lt;/font&gt;&lt;/div&gt;" id="VblmflZQPWKM-_h5zKfY-60">
          <mxCell style="rounded=1;whiteSpace=wrap;html=1;fontSize=11;labelBackgroundColor=none;fillColor=#bac8d3;align=center;arcSize=10;strokeColor=#23445d;metaEdit=1;resizable=0;points=[[0.25,0,0],[0.5,0,0],[0.75,0,0],[1,0.25,0],[1,0.5,0],[1,0.75,0],[0.75,1,0],[0.5,1,0],[0.25,1,0],[0,0.75,0],[0,0.5,0],[0,0.25,0]];fontColor=default;" parent="1" vertex="1">
            <mxGeometry x="1666" y="340" width="240" height="120" as="geometry" />
          </mxCell>
        </object>
        <object placeholders="1" c4Name="Docker" c4Type="ContainerScopeBoundary" c4Application="Docker deamon" label="&lt;font style=&quot;font-size: 16px&quot;&gt;&lt;b&gt;&lt;div style=&quot;text-align: left&quot;&gt;%c4Name%&lt;/div&gt;&lt;/b&gt;&lt;/font&gt;&lt;div style=&quot;text-align: left&quot;&gt;[%c4Application%]&lt;/div&gt;" id="VblmflZQPWKM-_h5zKfY-61">
          <mxCell style="rounded=1;fontSize=11;whiteSpace=wrap;html=1;dashed=1;arcSize=20;fillColor=none;strokeColor=#666666;fontColor=#333333;labelBackgroundColor=none;align=left;verticalAlign=bottom;labelBorderColor=none;spacingTop=0;spacing=10;dashPattern=8 4;metaEdit=1;rotatable=0;perimeter=rectanglePerimeter;noLabel=0;labelPadding=0;allowArrows=0;connectable=0;expand=0;recursiveResize=0;editable=1;pointerEvents=0;absoluteArcSize=1;points=[[0.25,0,0],[0.5,0,0],[0.75,0,0],[1,0.25,0],[1,0.5,0],[1,0.75,0],[0.75,1,0],[0.5,1,0],[0.25,1,0],[0,0.75,0],[0,0.5,0],[0,0.25,0]];" parent="1" vertex="1">
            <mxGeometry x="1626" y="320" width="300" height="180" as="geometry" />
          </mxCell>
        </object>
        <object placeholders="1" c4Type="Relationship" id="VblmflZQPWKM-_h5zKfY-62">
          <mxCell style="endArrow=blockThin;html=1;fontSize=10;fontColor=#404040;strokeWidth=1;endFill=1;strokeColor=#828282;elbow=vertical;metaEdit=1;endSize=14;startSize=14;jumpStyle=arc;jumpSize=16;rounded=0;edgeStyle=orthogonalEdgeStyle;exitX=0.468;exitY=0.983;exitDx=0;exitDy=0;exitPerimeter=0;entryX=0.433;entryY=0.01;entryDx=0;entryDy=0;entryPerimeter=0;" parent="1" source="VblmflZQPWKM-_h5zKfY-54" target="VblmflZQPWKM-_h5zKfY-60" edge="1">
            <mxGeometry width="240" relative="1" as="geometry">
              <mxPoint x="1550" y="390" as="sourcePoint" />
              <mxPoint x="1790" y="390" as="targetPoint" />
            </mxGeometry>
          </mxCell>
        </object>
        <mxCell id="VblmflZQPWKM-_h5zKfY-63" value="Fetches website static files and makes call to management service" style="edgeLabel;html=1;align=center;verticalAlign=middle;resizable=0;points=[];" parent="VblmflZQPWKM-_h5zKfY-62" vertex="1" connectable="0">
          <mxGeometry x="0.0988" y="-3" relative="1" as="geometry">
            <mxPoint x="10" as="offset" />
          </mxGeometry>
        </mxCell>
        <object placeholders="1" c4Type="Relationship" id="VblmflZQPWKM-_h5zKfY-64">
          <mxCell style="endArrow=blockThin;html=1;fontSize=10;fontColor=#404040;strokeWidth=1;endFill=1;strokeColor=#828282;elbow=vertical;metaEdit=1;endSize=14;startSize=14;jumpStyle=arc;jumpSize=16;rounded=0;edgeStyle=orthogonalEdgeStyle;entryX=1.006;entryY=0.619;entryDx=0;entryDy=0;entryPerimeter=0;exitX=-0.002;exitY=0.619;exitDx=0;exitDy=0;exitPerimeter=0;" parent="1" source="VblmflZQPWKM-_h5zKfY-60" target="VblmflZQPWKM-_h5zKfY-52" edge="1">
            <mxGeometry width="240" relative="1" as="geometry">
              <mxPoint x="1443.5" y="400" as="sourcePoint" />
              <mxPoint x="1683.5" y="400" as="targetPoint" />
            </mxGeometry>
          </mxCell>
        </object>
        <mxCell id="VblmflZQPWKM-_h5zKfY-65" value="Proxies traffic to" style="edgeLabel;html=1;align=center;verticalAlign=middle;resizable=0;points=[];" parent="VblmflZQPWKM-_h5zKfY-64" vertex="1" connectable="0">
          <mxGeometry x="0.0874" y="-2" relative="1" as="geometry">
            <mxPoint x="6" y="-12" as="offset" />
          </mxGeometry>
        </mxCell>
        <object placeholders="1" c4Type="Relationship" id="VblmflZQPWKM-_h5zKfY-66">
          <mxCell style="endArrow=blockThin;html=1;fontSize=10;fontColor=#404040;strokeWidth=1;endFill=1;strokeColor=#828282;elbow=vertical;metaEdit=1;endSize=14;startSize=14;jumpStyle=arc;jumpSize=16;rounded=0;edgeStyle=orthogonalEdgeStyle;exitX=0.712;exitY=0.978;exitDx=0;exitDy=0;exitPerimeter=0;" parent="1" source="VblmflZQPWKM-_h5zKfY-60" edge="1">
            <mxGeometry width="240" relative="1" as="geometry">
              <mxPoint x="1460" y="560" as="sourcePoint" />
              <mxPoint x="1853" y="660" as="targetPoint" />
              <Array as="points">
                <mxPoint x="1853" y="595" />
                <mxPoint x="1853" y="595" />
              </Array>
            </mxGeometry>
          </mxCell>
        </object>
        <mxCell id="VblmflZQPWKM-_h5zKfY-67" value="Proxies traffic to" style="edgeLabel;html=1;align=center;verticalAlign=middle;resizable=0;points=[];" parent="VblmflZQPWKM-_h5zKfY-66" vertex="1" connectable="0">
          <mxGeometry x="0.1408" y="1" relative="1" as="geometry">
            <mxPoint x="36" y="27" as="offset" />
          </mxGeometry>
        </mxCell>
        <object placeholders="1" c4Type="Relationship" id="VblmflZQPWKM-_h5zKfY-68">
          <mxCell style="endArrow=blockThin;html=1;fontSize=10;fontColor=#404040;strokeWidth=1;endFill=1;strokeColor=#828282;elbow=vertical;metaEdit=1;endSize=14;startSize=14;jumpStyle=arc;jumpSize=16;rounded=0;edgeStyle=orthogonalEdgeStyle;exitX=0.57;exitY=1.001;exitDx=0;exitDy=0;exitPerimeter=0;" parent="1" source="VblmflZQPWKM-_h5zKfY-8" edge="1">
            <mxGeometry width="240" relative="1" as="geometry">
              <mxPoint x="1220" y="1040" as="sourcePoint" />
              <mxPoint x="1077" y="800" as="targetPoint" />
            </mxGeometry>
          </mxCell>
        </object>
        <mxCell id="VblmflZQPWKM-_h5zKfY-69" value="Reads and writes to" style="edgeLabel;html=1;align=center;verticalAlign=middle;resizable=0;points=[];" parent="VblmflZQPWKM-_h5zKfY-68" vertex="1" connectable="0">
          <mxGeometry x="-0.1887" y="1" relative="1" as="geometry">
            <mxPoint x="52" as="offset" />
          </mxGeometry>
        </mxCell>
        <object placeholders="1" c4Type="Relationship" id="VblmflZQPWKM-_h5zKfY-70">
          <mxCell style="endArrow=blockThin;html=1;fontSize=10;fontColor=#404040;strokeWidth=1;endFill=1;strokeColor=#828282;elbow=vertical;metaEdit=1;endSize=14;startSize=14;jumpStyle=arc;jumpSize=16;rounded=0;edgeStyle=orthogonalEdgeStyle;entryX=1.007;entryY=0.583;entryDx=0;entryDy=0;entryPerimeter=0;" parent="1" target="VblmflZQPWKM-_h5zKfY-11" edge="1">
            <mxGeometry width="240" relative="1" as="geometry">
              <mxPoint x="1911" y="730" as="sourcePoint" />
              <mxPoint x="2151" y="730" as="targetPoint" />
              <Array as="points">
                <mxPoint x="1940" y="730" />
                <mxPoint x="1940" y="890" />
              </Array>
            </mxGeometry>
          </mxCell>
        </object>
        <object placeholders="1" c4Type="Relationship" id="VblmflZQPWKM-_h5zKfY-72">
          <mxCell style="endArrow=blockThin;html=1;fontSize=10;fontColor=#404040;strokeWidth=1;endFill=1;strokeColor=#828282;elbow=vertical;metaEdit=1;endSize=14;startSize=14;jumpStyle=arc;jumpSize=16;rounded=0;edgeStyle=orthogonalEdgeStyle;entryX=1.007;entryY=0.583;entryDx=0;entryDy=0;entryPerimeter=0;exitX=1.005;exitY=0.583;exitDx=0;exitDy=0;exitPerimeter=0;" parent="1" source="VblmflZQPWKM-_h5zKfY-12" edge="1">
            <mxGeometry width="240" relative="1" as="geometry">
              <mxPoint x="1912" y="860" as="sourcePoint" />
              <mxPoint x="1911" y="1020" as="targetPoint" />
              <Array as="points">
                <mxPoint x="1940" y="730" />
                <mxPoint x="1940" y="860" />
                <mxPoint x="1941" y="860" />
                <mxPoint x="1941" y="1020" />
              </Array>
            </mxGeometry>
          </mxCell>
        </object>
        <object placeholders="1" c4Type="Relationship" id="VblmflZQPWKM-_h5zKfY-73">
          <mxCell style="endArrow=blockThin;html=1;fontSize=10;fontColor=#404040;strokeWidth=1;endFill=1;strokeColor=#828282;elbow=vertical;metaEdit=1;endSize=14;startSize=14;jumpStyle=arc;jumpSize=16;rounded=0;edgeStyle=orthogonalEdgeStyle;entryX=1.007;entryY=0.583;entryDx=0;entryDy=0;entryPerimeter=0;exitX=1.005;exitY=0.573;exitDx=0;exitDy=0;exitPerimeter=0;" parent="1" source="VblmflZQPWKM-_h5zKfY-12" edge="1">
            <mxGeometry width="240" relative="1" as="geometry">
              <mxPoint x="1911" y="865" as="sourcePoint" />
              <mxPoint x="1912" y="1155" as="targetPoint" />
              <Array as="points">
                <mxPoint x="1940" y="729" />
                <mxPoint x="1940" y="865" />
                <mxPoint x="1941" y="865" />
                <mxPoint x="1941" y="995" />
                <mxPoint x="1942" y="995" />
                <mxPoint x="1942" y="1155" />
              </Array>
            </mxGeometry>
          </mxCell>
        </object>
        <mxCell id="VblmflZQPWKM-_h5zKfY-74" value="Reads and writes to" style="edgeLabel;html=1;align=center;verticalAlign=middle;resizable=0;points=[];" parent="VblmflZQPWKM-_h5zKfY-73" vertex="1" connectable="0">
          <mxGeometry x="-0.4401" y="-2" relative="1" as="geometry">
            <mxPoint x="22" y="104" as="offset" />
          </mxGeometry>
        </mxCell>
        <object placeholders="1" c4Type="Relationship" id="VblmflZQPWKM-_h5zKfY-77">
          <mxCell style="endArrow=blockThin;html=1;fontSize=10;fontColor=#404040;strokeWidth=1;endFill=1;strokeColor=#828282;elbow=vertical;metaEdit=1;endSize=14;startSize=14;jumpStyle=arc;jumpSize=16;rounded=0;edgeStyle=orthogonalEdgeStyle;exitX=0.531;exitY=0.998;exitDx=0;exitDy=0;exitPerimeter=0;" parent="1" source="VblmflZQPWKM-_h5zKfY-4" edge="1">
            <mxGeometry width="240" relative="1" as="geometry">
              <mxPoint x="1470" y="1630" as="sourcePoint" />
              <mxPoint x="1780" y="1630" as="targetPoint" />
              <Array as="points" />
            </mxGeometry>
          </mxCell>
        </object>
        <mxCell id="VblmflZQPWKM-_h5zKfY-78" value="Reads and writes to" style="edgeLabel;html=1;align=center;verticalAlign=middle;resizable=0;points=[];" parent="VblmflZQPWKM-_h5zKfY-77" vertex="1" connectable="0">
          <mxGeometry x="-0.4179" y="4" relative="1" as="geometry">
            <mxPoint x="48" y="8" as="offset" />
          </mxGeometry>
        </mxCell>
        <object placeholders="1" c4Type="Relationship" id="VblmflZQPWKM-_h5zKfY-80">
          <mxCell style="endArrow=blockThin;html=1;fontSize=10;fontColor=default;strokeWidth=1;endFill=1;strokeColor=#828282;elbow=vertical;metaEdit=1;endSize=14;startSize=14;jumpStyle=arc;jumpSize=16;rounded=0;edgeStyle=orthogonalEdgeStyle;" parent="1" edge="1">
            <mxGeometry width="240" relative="1" as="geometry">
              <mxPoint x="1560" y="2480" as="sourcePoint" />
              <mxPoint x="1710" y="2500" as="targetPoint" />
            </mxGeometry>
          </mxCell>
        </object>
        <mxCell id="VblmflZQPWKM-_h5zKfY-83" value="Uses" style="edgeLabel;html=1;align=center;verticalAlign=middle;resizable=0;points=[];fontColor=default;" parent="VblmflZQPWKM-_h5zKfY-80" vertex="1" connectable="0">
          <mxGeometry x="0.1313" relative="1" as="geometry">
            <mxPoint x="-16" y="-10" as="offset" />
          </mxGeometry>
        </mxCell>
        <object placeholders="1" c4Type="Relationship" id="VblmflZQPWKM-_h5zKfY-81">
          <mxCell style="endArrow=blockThin;html=1;fontSize=10;fontColor=default;strokeWidth=1;endFill=1;strokeColor=#828282;elbow=vertical;metaEdit=1;endSize=14;startSize=14;jumpStyle=arc;jumpSize=16;rounded=0;edgeStyle=orthogonalEdgeStyle;entryX=0.5;entryY=1;entryDx=0;entryDy=0;entryPerimeter=0;exitX=1;exitY=0.5;exitDx=0;exitDy=0;exitPerimeter=0;" parent="1" source="VblmflZQPWKM-_h5zKfY-25" edge="1">
            <mxGeometry width="240" relative="1" as="geometry">
              <mxPoint x="1400" y="2500" as="sourcePoint" />
              <mxPoint x="1726" y="2620" as="targetPoint" />
              <Array as="points">
                <mxPoint x="1710" y="2630" />
              </Array>
            </mxGeometry>
          </mxCell>
        </object>
        <mxCell id="VblmflZQPWKM-_h5zKfY-84" value="Uses" style="edgeLabel;html=1;align=center;verticalAlign=middle;resizable=0;points=[];fontColor=default;" parent="VblmflZQPWKM-_h5zKfY-81" vertex="1" connectable="0">
          <mxGeometry x="-0.0175" y="-3" relative="1" as="geometry">
            <mxPoint x="3" y="7" as="offset" />
          </mxGeometry>
        </mxCell>
        <object placeholders="1" c4Name="magpiemonitor-logs-storage-**" c4Type="SystemScopeBoundary" c4Application="Deployment Node: Ubuntu 22.04 LTS" label="&lt;font style=&quot;font-size: 16px&quot;&gt;&lt;b&gt;&lt;div style=&quot;text-align: left&quot;&gt;%c4Name%&lt;/div&gt;&lt;/b&gt;&lt;/font&gt;&lt;div style=&quot;text-align: left&quot;&gt;[%c4Application%]&lt;/div&gt;" id="VblmflZQPWKM-_h5zKfY-85">
          <mxCell style="rounded=1;fontSize=11;whiteSpace=wrap;html=1;dashed=1;arcSize=20;fillColor=none;strokeColor=#666666;fontColor=#333333;labelBackgroundColor=none;align=left;verticalAlign=bottom;labelBorderColor=none;spacingTop=0;spacing=10;dashPattern=8 4;metaEdit=1;rotatable=0;perimeter=rectanglePerimeter;noLabel=0;labelPadding=0;allowArrows=0;connectable=0;expand=0;recursiveResize=0;editable=1;pointerEvents=0;absoluteArcSize=1;points=[[0.25,0,0],[0.5,0,0],[0.75,0,0],[1,0.25,0],[1,0.5,0],[1,0.75,0],[0.75,1,0],[0.5,1,0],[0.25,1,0],[0,0.75,0],[0,0.5,0],[0,0.25,0]];" parent="1" vertex="1">
            <mxGeometry x="879.5" y="1200" width="300.5" height="300" as="geometry" />
          </mxCell>
        </object>
        <object placeholders="1" c4Name="Docker" c4Type="ContainerScopeBoundary" c4Application="Docker deamon" label="&lt;font style=&quot;font-size: 16px&quot;&gt;&lt;b&gt;&lt;div style=&quot;text-align: left&quot;&gt;%c4Name%&lt;/div&gt;&lt;/b&gt;&lt;/font&gt;&lt;div style=&quot;text-align: left&quot;&gt;[%c4Application%]&lt;/div&gt;" id="VblmflZQPWKM-_h5zKfY-86">
          <mxCell style="rounded=1;fontSize=11;whiteSpace=wrap;html=1;dashed=1;arcSize=20;fillColor=none;strokeColor=#666666;fontColor=#333333;labelBackgroundColor=none;align=left;verticalAlign=bottom;labelBorderColor=none;spacingTop=0;spacing=10;dashPattern=8 4;metaEdit=1;rotatable=0;perimeter=rectanglePerimeter;noLabel=0;labelPadding=0;allowArrows=0;connectable=0;expand=0;recursiveResize=0;editable=1;pointerEvents=0;absoluteArcSize=1;points=[[0.25,0,0],[0.5,0,0],[0.75,0,0],[1,0.25,0],[1,0.5,0],[1,0.75,0],[0.75,1,0],[0.5,1,0],[0.25,1,0],[0,0.75,0],[0,0.5,0],[0,0.25,0]];" parent="1" vertex="1">
            <mxGeometry x="899.5" y="1220" width="270.5" height="230" as="geometry" />
          </mxCell>
        </object>
        <object placeholders="1" c4Type="Relationship" id="VblmflZQPWKM-_h5zKfY-87">
          <mxCell style="endArrow=blockThin;html=1;fontSize=10;fontColor=#404040;strokeWidth=1;endFill=1;strokeColor=#828282;elbow=vertical;metaEdit=1;endSize=14;startSize=14;jumpStyle=arc;jumpSize=16;rounded=0;edgeStyle=orthogonalEdgeStyle;" parent="1" edge="1">
            <mxGeometry width="240" relative="1" as="geometry">
              <mxPoint x="1170" y="1590" as="sourcePoint" />
              <mxPoint x="1100" y="1380" as="targetPoint" />
              <Array as="points">
                <mxPoint x="1170" y="1430" />
                <mxPoint x="1101" y="1430" />
              </Array>
            </mxGeometry>
          </mxCell>
        </object>
        <mxCell id="VblmflZQPWKM-_h5zKfY-88" value="Writes logs to" style="edgeLabel;html=1;align=center;verticalAlign=middle;resizable=0;points=[];" parent="VblmflZQPWKM-_h5zKfY-87" vertex="1" connectable="0">
          <mxGeometry x="-0.4337" relative="1" as="geometry">
            <mxPoint x="40" y="-1" as="offset" />
          </mxGeometry>
        </mxCell>
        <object placeholders="1" c4Type="Relationship" id="VblmflZQPWKM-_h5zKfY-89">
          <mxCell style="endArrow=blockThin;html=1;fontSize=10;fontColor=#404040;strokeWidth=1;endFill=1;strokeColor=#828282;elbow=vertical;metaEdit=1;endSize=14;startSize=14;jumpStyle=arc;jumpSize=16;rounded=0;edgeStyle=orthogonalEdgeStyle;exitX=0;exitY=0.5;exitDx=0;exitDy=0;exitPerimeter=0;entryX=0.006;entryY=0.523;entryDx=0;entryDy=0;entryPerimeter=0;" parent="1" source="VblmflZQPWKM-_h5zKfY-8" target="VblmflZQPWKM-_h5zKfY-15" edge="1">
            <mxGeometry width="240" relative="1" as="geometry">
              <mxPoint x="750" y="1250" as="sourcePoint" />
              <mxPoint x="900" y="1310" as="targetPoint" />
              <Array as="points">
                <mxPoint x="860" y="700" />
                <mxPoint x="860" y="1323" />
              </Array>
            </mxGeometry>
          </mxCell>
        </object>
        <mxCell id="VblmflZQPWKM-_h5zKfY-90" value="Reads logs from" style="text;html=1;align=center;verticalAlign=middle;resizable=0;points=[];autosize=1;strokeColor=none;fillColor=none;" parent="1" vertex="1">
          <mxGeometry x="850" y="1100" width="100" height="30" as="geometry" />
        </mxCell>
        <object placeholders="1" c4Name="Cluster metadata storage" c4Type="Container" c4Technology="Redis" c4Description="Stores cluster metadata" label="&lt;font style=&quot;font-size: 16px&quot;&gt;&lt;b&gt;%c4Name%&lt;/b&gt;&lt;/font&gt;&lt;div&gt;[%c4Type%:&amp;nbsp;%c4Technology%]&lt;/div&gt;&lt;br&gt;&lt;div&gt;&lt;font style=&quot;font-size: 11px&quot;&gt;&lt;font&gt;%c4Description%&lt;/font&gt;&lt;/font&gt;&lt;/div&gt;" id="O4s0kgF8oqvcocRECzot-1">
          <mxCell style="shape=cylinder3;size=15;whiteSpace=wrap;html=1;boundedLbl=1;rounded=0;labelBackgroundColor=none;fillColor=#fff2cc;fontSize=12;align=center;strokeColor=#d6b656;metaEdit=1;points=[[0.5,0,0],[1,0.25,0],[1,0.5,0],[1,0.75,0],[0.5,1,0],[0,0.75,0],[0,0.5,0],[0,0.25,0]];resizable=0;" parent="1" vertex="1">
            <mxGeometry x="1600" y="2500" width="240" height="120" as="geometry" />
          </mxCell>
        </object>
        <mxCell id="O4s0kgF8oqvcocRECzot-2" value="Legend" style="shape=table;startSize=30;container=1;collapsible=0;childLayout=tableLayout;fontSize=16;align=left;verticalAlign=top;fillColor=none;strokeColor=none;fontColor=#4D4D4D;fontStyle=1;spacingLeft=6;spacing=0;resizable=0;" parent="1" vertex="1">
          <mxGeometry x="850" y="2290" width="180" height="170" as="geometry" />
        </mxCell>
        <mxCell id="O4s0kgF8oqvcocRECzot-3" value="" style="shape=tableRow;horizontal=0;startSize=0;swimlaneHead=0;swimlaneBody=0;strokeColor=inherit;top=0;left=0;bottom=0;right=0;collapsible=0;dropTarget=0;fillColor=none;points=[[0,0.5],[1,0.5]];portConstraint=eastwest;fontSize=12;" parent="O4s0kgF8oqvcocRECzot-2" vertex="1">
          <mxGeometry y="30" width="180" height="30" as="geometry" />
        </mxCell>
        <mxCell id="O4s0kgF8oqvcocRECzot-4" value="Logs ingestion service" style="shape=partialRectangle;html=1;whiteSpace=wrap;connectable=0;strokeColor=#10739e;overflow=hidden;fillColor=#b1ddf0;top=0;left=0;bottom=0;right=0;pointerEvents=1;fontSize=12;align=left;spacingLeft=10;spacingRight=4;" parent="O4s0kgF8oqvcocRECzot-3" vertex="1">
          <mxGeometry width="180" height="30" as="geometry">
            <mxRectangle width="180" height="30" as="alternateBounds" />
          </mxGeometry>
        </mxCell>
        <mxCell id="O4s0kgF8oqvcocRECzot-5" value="" style="shape=tableRow;horizontal=0;startSize=0;swimlaneHead=0;swimlaneBody=0;strokeColor=inherit;top=0;left=0;bottom=0;right=0;collapsible=0;dropTarget=0;fillColor=none;points=[[0,0.5],[1,0.5]];portConstraint=eastwest;fontSize=12;" parent="O4s0kgF8oqvcocRECzot-2" vertex="1">
          <mxGeometry y="60" width="180" height="30" as="geometry" />
        </mxCell>
        <mxCell id="O4s0kgF8oqvcocRECzot-6" value="Cluster metadta service" style="shape=partialRectangle;html=1;whiteSpace=wrap;connectable=0;strokeColor=#b85450;overflow=hidden;fillColor=#f8cecc;top=0;left=0;bottom=0;right=0;pointerEvents=1;fontSize=12;align=left;spacingLeft=10;spacingRight=4;" parent="O4s0kgF8oqvcocRECzot-5" vertex="1">
          <mxGeometry width="180" height="30" as="geometry">
            <mxRectangle width="180" height="30" as="alternateBounds" />
          </mxGeometry>
        </mxCell>
        <mxCell id="O4s0kgF8oqvcocRECzot-7" value="" style="shape=tableRow;horizontal=0;startSize=0;swimlaneHead=0;swimlaneBody=0;strokeColor=inherit;top=0;left=0;bottom=0;right=0;collapsible=0;dropTarget=0;fillColor=none;points=[[0,0.5],[1,0.5]];portConstraint=eastwest;fontSize=12;" parent="O4s0kgF8oqvcocRECzot-2" vertex="1">
          <mxGeometry y="90" width="180" height="40" as="geometry" />
        </mxCell>
        <mxCell id="O4s0kgF8oqvcocRECzot-8" value="Reports service" style="shape=partialRectangle;html=1;whiteSpace=wrap;connectable=0;strokeColor=#0e8088;overflow=hidden;fillColor=#b0e3e6;top=0;left=0;bottom=0;right=0;pointerEvents=1;fontSize=12;align=left;spacingLeft=10;spacingRight=4;" parent="O4s0kgF8oqvcocRECzot-7" vertex="1">
          <mxGeometry width="180" height="40" as="geometry">
            <mxRectangle width="180" height="40" as="alternateBounds" />
          </mxGeometry>
        </mxCell>
        <mxCell id="O4s0kgF8oqvcocRECzot-9" value="" style="shape=tableRow;horizontal=0;startSize=0;swimlaneHead=0;swimlaneBody=0;strokeColor=inherit;top=0;left=0;bottom=0;right=0;collapsible=0;dropTarget=0;fillColor=none;points=[[0,0.5],[1,0.5]];portConstraint=eastwest;fontSize=12;" parent="O4s0kgF8oqvcocRECzot-2" vertex="1">
          <mxGeometry y="130" width="180" height="40" as="geometry" />
        </mxCell>
        <mxCell id="O4s0kgF8oqvcocRECzot-10" value="Management service" style="shape=partialRectangle;html=1;whiteSpace=wrap;connectable=0;strokeColor=#d79b00;overflow=hidden;fillColor=#ffe6cc;top=0;left=0;bottom=0;right=0;pointerEvents=1;fontSize=12;align=left;spacingLeft=10;spacingRight=4;" parent="O4s0kgF8oqvcocRECzot-9" vertex="1">
          <mxGeometry width="180" height="40" as="geometry">
            <mxRectangle width="180" height="40" as="alternateBounds" />
          </mxGeometry>
        </mxCell>
        <mxCell id="D7xy1kiBADzD360u8Bj0-1" value="&amp;nbsp;" style="text;whiteSpace=wrap;html=1;" vertex="1" parent="1">
          <mxGeometry x="1220" y="30" width="40" height="40" as="geometry" />
        </mxCell>
      </root>
    </mxGraphModel>
  </diagram>
</mxfile>
